<svg id="visual" viewBox="0 0 1920 1080" width="1920" height="1080" xmlns="http://www.w3.org/2000/svg" xmlns:xlink="http://www.w3.org/1999/xlink" version="1.1"><rect x="0" y="0" width="1920" height="1080" fill="#111"></rect><g fill="none" stroke="#333" stroke-width="4"><circle r="24" cx="1556" cy="666"></circle><circle r="7" cx="416" cy="926"></circle><circle r="15" cx="595" cy="44"></circle><circle r="19" cx="470" cy="735"></circle><circle r="9" cx="1312" cy="819"></circle><circle r="14" cx="239" cy="780"></circle><circle r="11" cx="1502" cy="965"></circle><circle r="18" cx="1562" cy="822"></circle><circle r="16" cx="1789" cy="814"></circle><circle r="22" cx="621" cy="466"></circle><circle r="19" cx="733" cy="251"></circle><circle r="17" cx="1708" cy="51"></circle><circle r="18" cx="698" cy="898"></circle><circle r="11" cx="1514" cy="787"></circle><circle r="12" cx="1209" cy="378"></circle><circle r="18" cx="582" cy="947"></circle><circle r="20" cx="206" cy="285"></circle><circle r="8" cx="246" cy="117"></circle><circle r="14" cx="92" cy="213"></circle><circle r="9" cx="341" cy="279"></circle><circle r="20" cx="838" cy="281"></circle><circle r="11" cx="455" cy="154"></circle><circle r="7" cx="973" cy="51"></circle><circle r="6" cx="853" cy="546"></circle><circle r="7" cx="1740" cy="756"></circle><circle r="12" cx="648" cy="697"></circle><circle r="19" cx="1274" cy="107"></circle><circle r="21" cx="783" cy="775"></circle><circle r="21" cx="303" cy="1007"></circle><circle r="12" cx="1299" cy="890"></circle><circle r="19" cx="1010" cy="185"></circle><circle r="19" cx="681" cy="308"></circle><circle r="6" cx="1498" cy="561"></circle><circle r="15" cx="1634" cy="532"></circle><circle r="12" cx="1639" cy="635"></circle><circle r="11" cx="1802" cy="753"></circle><circle r="15" cx="1692" cy="456"></circle><circle r="18" cx="1096" cy="537"></circle><circle r="7" cx="1883" cy="660"></circle><circle r="15" cx="1018" cy="236"></circle><circle r="21" cx="45" cy="111"></circle><circle r="15" cx="1081" cy="834"></circle><circle r="22" cx="1256" cy="950"></circle><circle r="13" cx="1879" cy="825"></circle><circle r="20" cx="1604" cy="745"></circle><circle r="15" cx="353" cy="936"></circle><circle r="9" cx="402" cy="175"></circle><circle r="15" cx="1187" cy="199"></circle><circle r="6" cx="707" cy="26"></circle><circle r="21" cx="899" cy="450"></circle><circle r="6" cx="107" cy="595"></circle><circle r="7" cx="1849" cy="378"></circle><circle r="13" cx="733" cy="665"></circle><circle r="8" cx="454" cy="54"></circle><circle r="11" cx="1800" cy="1040"></circle><circle r="14" cx="868" cy="84"></circle><circle r="10" cx="32" cy="55"></circle><circle r="14" cx="1404" cy="976"></circle><circle r="10" cx="1614" cy="803"></circle><circle r="18" cx="1874" cy="979"></circle><circle r="21" cx="1360" cy="785"></circle><circle r="6" cx="1206" cy="1040"></circle><circle r="11" cx="525" cy="262"></circle><circle r="22" cx="1528" cy="479"></circle><circle r="16" cx="893" cy="695"></circle><circle r="20" cx="1802" cy="520"></circle><circle r="15" cx="1242" cy="644"></circle><circle r="21" cx="1889" cy="115"></circle><circle r="14" cx="973" cy="486"></circle><circle r="18" cx="1016" cy="794"></circle><circle r="14" cx="376" cy="418"></circle><circle r="11" cx="1199" cy="268"></circle><circle r="20" cx="389" cy="28"></circle><circle r="10" cx="982" cy="1041"></circle><circle r="12" cx="166" cy="756"></circle><circle r="10" cx="1505" cy="300"></circle><circle r="7" cx="406" cy="827"></circle><circle r="20" cx="1468" cy="253"></circle><circle r="17" cx="1332" cy="376"></circle><circle r="20" cx="882" cy="1008"></circle><circle r="18" cx="618" cy="534"></circle><circle r="12" cx="1454" cy="1028"></circle><circle r="9" cx="935" cy="318"></circle><circle r="11" cx="1403" cy="442"></circle><circle r="12" cx="742" cy="612"></circle><circle r="12" cx="203" cy="59"></circle><circle r="14" cx="605" cy="779"></circle><circle r="12" cx="1700" cy="108"></circle><circle r="8" cx="1601" cy="313"></circle><circle r="20" cx="696" cy="563"></circle><circle r="21" cx="1676" cy="1035"></circle><circle r="7" cx="1782" cy="669"></circle><circle r="13" cx="695" cy="724"></circle><circle r="18" cx="1619" cy="444"></circle><circle r="15" cx="667" cy="617"></circle><circle r="10" cx="670" cy="186"></circle><circle r="12" cx="147" cy="826"></circle><circle r="17" cx="1556" cy="902"></circle><circle r="14" cx="106" cy="867"></circle><circle r="7" cx="1828" cy="855"></circle><circle r="8" cx="525" cy="634"></circle><circle r="14" cx="1592" cy="233"></circle><circle r="18" cx="584" cy="279"></circle><circle r="7" cx="489" cy="408"></circle><circle r="17" cx="1554" cy="167"></circle><circle r="22" cx="760" cy="416"></circle><circle r="20" cx="1743" cy="423"></circle><circle r="8" cx="1712" cy="667"></circle><circle r="11" cx="1846" cy="70"></circle><circle r="13" cx="1270" cy="780"></circle><circle r="7" cx="136" cy="44"></circle><circle r="6" cx="1043" cy="453"></circle><circle r="18" cx="26" cy="531"></circle><circle r="14" cx="811" cy="890"></circle><circle r="22" cx="69" cy="750"></circle><circle r="20" cx="237" cy="652"></circle><circle r="12" cx="312" cy="667"></circle><circle r="10" cx="1352" cy="734"></circle><circle r="9" cx="1212" cy="760"></circle><circle r="11" cx="244" cy="564"></circle><circle r="21" cx="823" cy="708"></circle><circle r="10" cx="465" cy="253"></circle><circle r="13" cx="132" cy="372"></circle><circle r="9" cx="1855" cy="902"></circle><circle r="12" cx="1066" cy="688"></circle><circle r="15" cx="704" cy="365"></circle><circle r="10" cx="959" cy="883"></circle><circle r="21" cx="1409" cy="260"></circle><circle r="22" cx="342" cy="471"></circle><circle r="17" cx="532" cy="923"></circle><circle r="15" cx="227" cy="167"></circle><circle r="18" cx="389" cy="628"></circle><circle r="22" cx="1271" cy="336"></circle><circle r="9" cx="553" cy="375"></circle><circle r="10" cx="353" cy="857"></circle><circle r="11" cx="1113" cy="187"></circle><circle r="9" cx="1613" cy="977"></circle><circle r="14" cx="33" cy="865"></circle><circle r="14" cx="805" cy="501"></circle><circle r="15" cx="857" cy="402"></circle><circle r="18" cx="1105" cy="973"></circle><circle r="15" cx="1667" cy="874"></circle><circle r="22" cx="964" cy="239"></circle><circle r="11" cx="584" cy="167"></circle><circle r="20" cx="1210" cy="110"></circle><circle r="10" cx="1560" cy="356"></circle><circle r="17" cx="537" cy="814"></circle><circle r="19" cx="1096" cy="376"></circle><circle r="15" cx="787" cy="231"></circle><circle r="10" cx="1641" cy="709"></circle><circle r="18" cx="1462" cy="494"></circle><circle r="22" cx="167" cy="986"></circle><circle r="6" cx="97" cy="94"></circle><circle r="22" cx="1871" cy="514"></circle><circle r="16" cx="1120" cy="620"></circle><circle r="20" cx="175" cy="925"></circle><circle r="12" cx="1181" cy="66"></circle><circle r="20" cx="1894" cy="243"></circle><circle r="11" cx="1293" cy="514"></circle><circle r="11" cx="1558" cy="590"></circle><circle r="14" cx="494" cy="996"></circle><circle r="18" cx="537" cy="48"></circle><circle r="16" cx="898" cy="864"></circle><circle r="8" cx="1854" cy="311"></circle><circle r="8" cx="1107" cy="316"></circle><circle r="18" cx="1366" cy="671"></circle><circle r="9" cx="1507" cy="117"></circle><circle r="12" cx="97" cy="802"></circle><circle r="10" cx="1640" cy="151"></circle><circle r="8" cx="1796" cy="429"></circle><circle r="11" cx="78" cy="354"></circle><circle r="10" cx="1298" cy="459"></circle><circle r="13" cx="752" cy="59"></circle><circle r="9" cx="1171" cy="714"></circle><circle r="10" cx="646" cy="123"></circle><circle r="20" cx="28" cy="188"></circle><circle r="18" cx="380" cy="757"></circle><circle r="8" cx="753" cy="312"></circle><circle r="7" cx="848" cy="185"></circle><circle r="8" cx="1842" cy="698"></circle><circle r="11" cx="529" cy="523"></circle><circle r="9" cx="1238" cy="580"></circle><circle r="8" cx="977" cy="431"></circle><circle r="21" cx="1756" cy="196"></circle><circle r="8" cx="139" cy="181"></circle><circle r="10" cx="257" cy="382"></circle><circle r="22" cx="309" cy="102"></circle><circle r="15" cx="1326" cy="298"></circle><circle r="19" cx="798" cy="825"></circle><circle r="19" cx="1110" cy="914"></circle><circle r="14" cx="33" cy="800"></circle><circle r="7" cx="258" cy="511"></circle><circle r="14" cx="286" cy="887"></circle><circle r="14" cx="523" cy="102"></circle><circle r="10" cx="90" cy="449"></circle><circle r="21" cx="455" cy="632"></circle><circle r="15" cx="1458" cy="654"></circle><circle r="10" cx="1300" cy="636"></circle><circle r="15" cx="1757" cy="619"></circle><circle r="17" cx="308" cy="233"></circle><circle r="20" cx="1584" cy="33"></circle><circle r="11" cx="808" cy="140"></circle><circle r="12" cx="610" cy="338"></circle><circle r="7" cx="486" cy="886"></circle><circle r="14" cx="924" cy="139"></circle><circle r="15" cx="1048" cy="53"></circle><circle r="10" cx="1776" cy="917"></circle><circle r="19" cx="1029" cy="342"></circle><circle r="12" cx="977" cy="985"></circle><circle r="11" cx="1394" cy="865"></circle><circle r="6" cx="1476" cy="872"></circle><circle r="22" cx="1534" cy="417"></circle><circle r="20" cx="713" cy="1006"></circle><circle r="18" cx="1062" cy="120"></circle><circle r="14" cx="649" cy="31"></circle><circle r="19" cx="28" cy="449"></circle><circle r="10" cx="1155" cy="405"></circle><circle r="13" cx="863" cy="491"></circle><circle r="15" cx="1182" cy="564"></circle><circle r="8" cx="1614" cy="106"></circle><circle r="18" cx="416" cy="1018"></circle><circle r="14" cx="994" cy="289"></circle><circle r="18" cx="389" cy="119"></circle><circle r="13" cx="743" cy="526"></circle><circle r="19" cx="824" cy="26"></circle><circle r="19" cx="1452" cy="113"></circle><circle r="18" cx="1491" cy="52"></circle><circle r="12" cx="638" cy="411"></circle><circle r="11" cx="1249" cy="213"></circle><circle r="21" cx="1712" cy="301"></circle><circle r="17" cx="814" cy="374"></circle><circle r="14" cx="408" cy="351"></circle><circle r="11" cx="889" cy="758"></circle><circle r="7" cx="1700" cy="604"></circle><circle r="13" cx="1345" cy="230"></circle><circle r="10" cx="528" cy="460"></circle><circle r="7" cx="525" cy="759"></circle><circle r="22" cx="1002" cy="640"></circle><circle r="7" cx="1307" cy="62"></circle><circle r="22" cx="1112" cy="28"></circle><circle r="20" cx="1854" cy="165"></circle><circle r="14" cx="1280" cy="999"></circle><circle r="18" cx="1765" cy="360"></circle><circle r="22" cx="979" cy="104"></circle><circle r="6" cx="306" cy="793"></circle><circle r="13" cx="780" cy="1013"></circle><circle r="15" cx="901" cy="238"></circle><circle r="22" cx="1151" cy="836"></circle><circle r="16" cx="1352" cy="509"></circle><circle r="21" cx="1239" cy="870"></circle><circle r="18" cx="1009" cy="587"></circle><circle r="16" cx="30" cy="378"></circle><circle r="18" cx="326" cy="389"></circle><circle r="12" cx="510" cy="339"></circle><circle r="6" cx="151" cy="314"></circle><circle r="21" cx="1700" cy="721"></circle><circle r="8" cx="1108" cy="84"></circle><circle r="10" cx="1438" cy="574"></circle><circle r="17" cx="1745" cy="476"></circle><circle r="7" cx="1034" cy="914"></circle><circle r="11" cx="143" cy="451"></circle><circle r="16" cx="37" cy="613"></circle><circle r="8" cx="750" cy="859"></circle><circle r="7" cx="1200" cy="493"></circle><circle r="7" cx="119" cy="929"></circle><circle r="10" cx="1676" cy="936"></circle><circle r="7" cx="422" cy="541"></circle><circle r="13" cx="1477" cy="357"></circle><circle r="13" cx="1312" cy="566"></circle><circle r="9" cx="60" cy="667"></circle><circle r="16" cx="148" cy="241"></circle><circle r="18" cx="1776" cy="122"></circle><circle r="6" cx="1380" cy="1044"></circle><circle r="6" cx="1719" cy="982"></circle><circle r="19" cx="1830" cy="250"></circle><circle r="9" cx="119" cy="511"></circle><circle r="6" cx="798" cy="643"></circle><circle r="17" cx="918" cy="644"></circle><circle r="6" cx="813" cy="79"></circle><circle r="6" cx="1425" cy="67"></circle><circle r="12" cx="667" cy="787"></circle><circle r="14" cx="616" cy="891"></circle><circle r="13" cx="1710" cy="802"></circle><circle r="10" cx="1404" cy="185"></circle><circle r="12" cx="180" cy="409"></circle><circle r="16" cx="874" cy="915"></circle><circle r="17" cx="445" cy="462"></circle><circle r="13" cx="1876" cy="460"></circle><circle r="21" cx="1402" cy="359"></circle><circle r="15" cx="32" cy="1007"></circle><circle r="17" cx="1017" cy="851"></circle><circle r="15" cx="290" cy="167"></circle><circle r="15" cx="158" cy="581"></circle><circle r="19" cx="1159" cy="336"></circle><circle r="20" cx="1633" cy="374"></circle><circle r="10" cx="1448" cy="751"></circle><circle r="10" cx="1149" cy="251"></circle><circle r="15" cx="1167" cy="926"></circle><circle r="6" cx="1239" cy="57"></circle><circle r="10" cx="1406" cy="631"></circle><circle r="11" cx="1803" cy="310"></circle><circle r="9" cx="322" cy="726"></circle><circle r="15" cx="585" cy="1022"></circle><circle r="17" cx="36" cy="262"></circle><circle r="9" cx="1670" cy="218"></circle><circle r="20" cx="1855" cy="582"></circle><circle r="11" cx="1732" cy="533"></circle><circle r="20" cx="158" cy="679"></circle><circle r="14" cx="1146" cy="1015"></circle><circle r="9" cx="428" cy="695"></circle><circle r="22" cx="729" cy="157"></circle><circle r="19" cx="102" cy="284"></circle><circle r="16" cx="916" cy="965"></circle><circle r="7" cx="609" cy="225"></circle><circle r="13" cx="270" cy="319"></circle><circle r="19" cx="237" cy="239"></circle><circle r="13" cx="1524" cy="735"></circle><circle r="11" cx="1392" cy="135"></circle><circle r="9" cx="665" cy="970"></circle><circle r="6" cx="1766" cy="861"></circle><circle r="22" cx="559" cy="698"></circle><circle r="14" cx="664" cy="1052"></circle><circle r="20" cx="140" cy="1041"></circle><circle r="6" cx="322" cy="588"></circle><circle r="19" cx="1148" cy="784"></circle><circle r="9" cx="29" cy="321"></circle><circle r="12" cx="980" cy="757"></circle><circle r="6" cx="557" cy="574"></circle><circle r="9" cx="465" cy="822"></circle><circle r="21" cx="869" cy="608"></circle><circle r="19" cx="983" cy="376"></circle><circle r="13" cx="269" cy="63"></circle><circle r="15" cx="433" cy="777"></circle><circle r="8" cx="1454" cy="928"></circle><circle r="21" cx="283" cy="452"></circle><circle r="20" cx="813" cy="435"></circle><circle r="6" cx="329" cy="36"></circle><circle r="13" cx="1077" cy="234"></circle><circle r="14" cx="355" cy="203"></circle><circle r="6" cx="1366" cy="54"></circle><circle r="19" cx="1711" cy="250"></circle><circle r="15" cx="1261" cy="411"></circle><circle r="22" cx="1063" cy="581"></circle><circle r="7" cx="1352" cy="992"></circle><circle r="10" cx="1317" cy="166"></circle><circle r="16" cx="977" cy="544"></circle><circle r="12" cx="646" cy="269"></circle><circle r="19" cx="1531" cy="249"></circle><circle r="22" cx="969" cy="696"></circle><circle r="10" cx="1866" cy="775"></circle><circle r="8" cx="83" cy="976"></circle><circle r="10" cx="1425" cy="807"></circle><circle r="12" cx="1767" cy="40"></circle><circle r="17" cx="222" cy="1018"></circle><circle r="21" cx="1114" cy="741"></circle><circle r="17" cx="1060" cy="1024"></circle><circle r="10" cx="1052" cy="289"></circle><circle r="14" cx="1651" cy="293"></circle><circle r="14" cx="190" cy="512"></circle><circle r="22" cx="32" cy="942"></circle><circle r="18" cx="371" cy="548"></circle><circle r="9" cx="910" cy="39"></circle><circle r="10" cx="211" cy="607"></circle><circle r="12" cx="914" cy="568"></circle><circle r="20" cx="451" cy="320"></circle><circle r="18" cx="225" cy="891"></circle><circle r="14" cx="163" cy="118"></circle><circle r="20" cx="247" cy="957"></circle><circle r="17" cx="735" cy="805"></circle><circle r="16" cx="1503" cy="687"></circle><circle r="14" cx="1469" cy="174"></circle><circle r="17" cx="1885" cy="36"></circle><circle r="9" cx="189" cy="350"></circle><circle r="12" cx="1637" cy="34"></circle><circle r="15" cx="384" cy="248"></circle><circle r="8" cx="1023" cy="521"></circle><circle r="9" cx="880" cy="327"></circle><circle r="10" cx="1120" cy="449"></circle><circle r="20" cx="1531" cy="1036"></circle><circle r="11" cx="1032" cy="733"></circle><circle r="7" cx="232" cy="451"></circle><circle r="16" cx="357" cy="1010"></circle><circle r="16" cx="1383" cy="306"></circle><circle r="19" cx="1507" cy="617"></circle><circle r="14" cx="735" cy="948"></circle><circle r="21" cx="1559" cy="92"></circle><circle r="19" cx="808" cy="962"></circle><circle r="22" cx="1303" cy="1053"></circle><circle r="18" cx="270" cy="1052"></circle><circle r="16" cx="595" cy="105"></circle><circle r="14" cx="1276" cy="697"></circle><circle r="16" cx="734" cy="462"></circle><circle r="6" cx="1363" cy="583"></circle><circle r="12" cx="1578" cy="496"></circle><circle r="14" cx="1893" cy="717"></circle><circle r="6" cx="1202" cy="827"></circle><circle r="11" cx="1808" cy="193"></circle><circle r="13" cx="932" cy="388"></circle><circle r="19" cx="535" cy="196"></circle><circle r="6" cx="1740" cy="1051"></circle><circle r="8" cx="941" cy="187"></circle><circle r="19" cx="1883" cy="1053"></circle><circle r="12" cx="669" cy="492"></circle><circle r="22" cx="1716" cy="164"></circle><circle r="22" cx="1214" cy="988"></circle><circle r="19" cx="1616" cy="912"></circle><circle r="13" cx="1476" cy="424"></circle><circle r="10" cx="582" cy="427"></circle><circle r="11" cx="93" cy="158"></circle><circle r="11" cx="1795" cy="579"></circle><circle r="13" cx="689" cy="81"></circle><circle r="17" cx="812" cy="591"></circle><circle r="10" cx="635" cy="834"></circle><circle r="12" cx="596" cy="659"></circle><circle r="20" cx="1686" cy="379"></circle><circle r="13" cx="1153" cy="131"></circle><circle r="14" cx="263" cy="721"></circle><circle r="10" cx="922" cy="806"></circle><circle r="13" cx="299" cy="942"></circle><circle r="15" cx="1340" cy="428"></circle><circle r="14" cx="470" cy="559"></circle><circle r="11" cx="582" cy="848"></circle><circle r="8" cx="1622" cy="1032"></circle><circle r="9" cx="112" cy="717"></circle><circle r="19" cx="210" cy="831"></circle><circle r="6" cx="1613" cy="859"></circle><circle r="6" cx="1207" cy="438"></circle><circle r="19" cx="920" cy="1044"></circle><circle r="12" cx="1821" cy="961"></circle><circle r="21" cx="450" cy="969"></circle><circle r="6" cx="610" cy="586"></circle><circle r="13" cx="1183" cy="639"></circle><circle r="12" cx="481" cy="198"></circle><circle r="14" cx="691" cy="417"></circle><circle r="15" cx="848" cy="797"></circle><circle r="22" cx="921" cy="498"></circle><circle r="16" cx="1720" cy="887"></circle><circle r="13" cx="1828" cy="634"></circle><circle r="19" cx="1336" cy="926"></circle><circle r="11" cx="77" cy="1035"></circle><circle r="19" cx="395" cy="485"></circle><circle r="6" cx="692" cy="834"></circle><circle r="18" cx="500" cy="689"></circle><circle r="19" cx="1653" cy="767"></circle><circle r="21" cx="1583" cy="402"></circle><circle r="11" cx="1772" cy="987"></circle><circle r="10" cx="1270" cy="261"></circle><circle r="21" cx="761" cy="719"></circle><circle r="20" cx="339" cy="331"></circle><circle r="13" cx="1685" cy="510"></circle><circle r="20" cx="1028" cy="972"></circle><circle r="21" cx="1421" cy="705"></circle><circle r="16" cx="839" cy="1047"></circle><circle r="19" cx="210" cy="716"></circle><circle r="15" cx="1449" cy="306"></circle><circle r="8" cx="984" cy="932"></circle><circle r="16" cx="1389" cy="926"></circle><circle r="22" cx="1347" cy="103"></circle><circle r="12" cx="492" cy="1049"></circle><circle r="17" cx="1560" cy="964"></circle><circle r="11" cx="1036" cy="395"></circle><circle r="8" cx="78" cy="32"></circle><circle r="17" cx="1774" cy="261"></circle><circle r="16" cx="1132" cy="671"></circle><circle r="6" cx="1406" cy="506"></circle><circle r="15" cx="1246" cy="161"></circle><circle r="12" cx="1219" cy="325"></circle><circle r="18" cx="431" cy="408"></circle><circle r="13" cx="1146" cy="523"></circle><circle r="10" cx="79" cy="552"></circle><circle r="18" cx="322" cy="532"></circle><circle r="6" cx="576" cy="498"></circle><circle r="16" cx="737" cy="1054"></circle><circle r="7" cx="1065" cy="774"></circle><circle r="8" cx="27" cy="711"></circle><circle r="15" cx="1826" cy="473"></circle><circle r="13" cx="190" cy="203"></circle><circle r="22" cx="433" cy="876"></circle><circle r="10" cx="368" cy="681"></circle><circle r="21" cx="268" cy="610"></circle><circle r="12" cx="339" cy="147"></circle><circle r="6" cx="763" cy="114"></circle><circle r="9" cx="1893" cy="350"></circle><circle r="11" cx="970" cy="831"></circle><circle r="15" cx="1892" cy="409"></circle><circle r="10" cx="398" cy="298"></circle><circle r="7" cx="263" cy="834"></circle><circle r="15" cx="547" cy="984"></circle><circle r="12" cx="1642" cy="582"></circle><circle r="21" cx="1248" cy="471"></circle><circle r="22" cx="865" cy="137"></circle><circle r="19" cx="952" cy="603"></circle></g></svg>
